<svg xmlns="http://www.w3.org/2000/svg" fill="#f72828" viewBox="0 0 48 48" width="48px" height="48px"><path d="M 13.5 6 C 9.3754991 6 6 9.3754991 6 13.5 L 6 34.5 C 6 38.624501 9.3754991 42 13.5 42 L 34.5 42 C 38.624501 42 42 38.624501 42 34.5 L 42 13.5 C 42 9.3754991 38.624501 6 34.5 6 L 13.5 6 z M 13.5 9 L 34.5 9 C 37.003499 9 39 10.996501 39 13.5 L 39 34.5 C 39 37.003499 37.003499 39 34.5 39 L 13.5 39 C 10.996501 39 9 37.003499 9 34.5 L 9 13.5 C 9 10.996501 10.996501 9 13.5 9 z M 16.5 15 A 1.50015 1.50015 0 0 0 15 16.5 L 15 31.5 A 1.50015 1.50015 0 1 0 18 31.5 L 18 26 L 19 26 C 22.019774 26 24.5 23.519774 24.5 20.5 C 24.5 17.480226 22.019774 15 19 15 L 16.5 15 z M 18 18 L 19 18 C 20.398226 18 21.5 19.101774 21.5 20.5 C 21.5 21.898226 20.398226 23 19 23 L 18 23 L 18 18 z M 29.050781 21 C 26.997644 21 25.300781 22.696863 25.300781 24.75 C 25.300781 26.803137 26.997644 28.5 29.050781 28.5 L 30.25 28.5 C 30.682863 28.5 31 28.817137 31 29.25 C 31 29.682863 30.682863 30 30.25 30 L 28.099609 30 C 27.965151 30 27.859195 29.95371 27.769531 29.875 C 27.751901 29.85954 27.734366 29.844018 27.722656 29.830078 A 1.50015 1.50015 0 1 0 25.425781 31.757812 C 25.540068 31.893868 25.662647 32.018317 25.791016 32.130859 C 26.405347 32.670147 27.222068 33 28.099609 33 L 30.25 33 C 32.303137 33 34 31.303137 34 29.25 C 34 27.196863 32.303137 25.5 30.25 25.5 L 29.050781 25.5 C 28.617918 25.5 28.300781 25.182863 28.300781 24.75 C 28.300781 24.317137 28.617918 24 29.050781 24 L 30.400391 24 C 30.627365 24 30.797197 24.136679 30.867188 24.320312 A 1.50015 1.50015 0 1 0 33.669922 23.251953 C 33.165912 21.929587 31.879416 21 30.400391 21 L 29.050781 21 z"/></svg>