<svg version="1.1" id="Layer_1" xmlns="http://www.w3.org/2000/svg" xmlns:xlink="http://www.w3.org/1999/xlink" x="0px" y="0px"
	 width="100%" viewBox="0 0 1200 600" enable-background="new 0 0 1200 600" xml:space="preserve">

<path fill="rgb(93 93 93 / 40%)" opacity="1.000000" stroke="none" 
	d="
M409.004791,280.184265 
	C410.509766,271.657257 415.338898,265.729248 421.161530,260.244720 
	C428.435669,253.393021 435.061737,245.833405 442.523834,239.205734 
	C454.578186,228.499451 464.944153,215.842133 478.168701,206.588898 
	C489.685120,198.530807 503.623779,197.800705 515.838135,206.492004 
	C528.172485,215.268707 537.559875,227.272110 547.975769,238.106491 
	C552.803650,243.128372 557.895935,247.897781 562.553467,253.072449 
	C568.735962,259.941345 575.955261,265.873566 580.183838,274.477997 
	C587.362915,289.086121 584.160400,304.079681 573.489441,314.755219 
	C564.030518,324.218201 554.641296,333.846527 544.624573,342.687134 
	C534.850830,351.313354 526.709167,361.733185 516.060425,369.247284 
	C507.658936,375.175568 498.306946,379.054443 487.453674,375.737823 
	C476.988983,372.539917 468.388397,366.915619 462.229584,357.761871 
	C461.955627,357.354675 461.541382,357.040192 461.184357,356.690887 
	C447.192749,343.001617 434.192444,328.352722 420.218689,314.630737 
	C412.394836,306.947815 407.910187,297.220245 407.951599,285.833801 
	C407.958374,283.965393 408.367950,282.298035 409.004791,280.184265 
z"/>
</svg>